<svg xmlns="http://www.w3.org/2000/svg" xmlns:xlink="http://www.w3.org/1999/xlink" width="512" height="708" viewBox="0 0 384 531"><g id="graph0" class="graph" transform="scale(1 1) rotate(0) translate(4 527)"><title>AccountStructure</title><polygon fill="#fff" stroke="transparent" points="-4 4 -4 -527 380 -527 380 4 -4 4"/><text x="188" y="-507.8" font-family="Times,serif" font-size="14" text-anchor="middle">CNCF AWS project account structure</text><g id="clust1" class="cluster"><title>cluster0</title><polygon fill="none" stroke="#000" points="8 -8 8 -492 368 -492 368 -8 8 -8"/><text x="188" y="-476.8" font-family="Times,serif" font-size="14" text-anchor="middle">CNCF root Org</text></g><g id="clust2" class="cluster"><title>cluster0_0</title><polygon fill="none" stroke="#000" points="16 -16 16 -461 360 -461 360 -16 16 -16"/><text x="188" y="-445.8" font-family="Times,serif" font-size="14" text-anchor="middle">Kubernetes Org Unit</text></g><g id="clust3" class="cluster"><title>cluster0_0_0</title><polygon fill="none" stroke="#000" points="87 -24 87 -285 333 -285 333 -24 87 -24"/><text x="210" y="-269.8" font-family="Times,serif" font-size="14" text-anchor="middle">registry.k8s.io Org Unit</text></g><g id="clust4" class="cluster"><title>cluster0_0_0_0</title><polygon fill="none" stroke="#000" points="95 -32 95 -254 325 -254 325 -32 95 -32"/><text x="210" y="-238.8" font-family="Times,serif" font-size="14" text-anchor="middle">registry.k8s.io_admin Account</text></g><g id="clust5" class="cluster"><title>cluster0_0_0_0_0</title><polygon fill="none" stroke="#000" points="133 -40 133 -115 243 -115 243 -40 133 -40"/><text x="188" y="-99.8" font-family="Times,serif" font-size="14" text-anchor="middle">S3 resources</text></g><g id="clust6" class="cluster"><title>cluster0_0_0_0_1</title><polygon fill="none" stroke="#000" points="105 -148 105 -223 271 -223 271 -148 105 -148"/><text x="188" y="-207.8" font-family="Times,serif" font-size="14" text-anchor="middle">IAM roles</text></g><g id="clust7" class="cluster"><title>cluster0_0_1</title><polygon fill="none" stroke="#000" points="24 -316 24 -430 352 -430 352 -316 24 -316"/><text x="188" y="-414.8" font-family="Times,serif" font-size="14" text-anchor="middle">k8s-infra-accounts Account</text></g><g id="clust8" class="cluster"><title>cluster0_0_1_0</title><polygon fill="none" stroke="#000" points="32 -324 32 -399 344 -399 344 -324 32 -324"/><text x="188" y="-383.8" font-family="Times,serif" font-size="14" text-anchor="middle">IAM users</text></g><g id="node1" class="node"><title>Buckets</title><ellipse cx="188" cy="-66" fill="none" stroke="#000" stroke-dasharray="5 2" rx="46.59" ry="18"/><text x="188" y="-62.3" font-family="Times,serif" font-size="14" text-anchor="middle">Bucketⁿ</text></g><g id="node2" class="node"><title>s3writer</title><ellipse cx="188" cy="-174" fill="none" stroke="#000" rx="75.29" ry="18"/><text x="188" y="-170.3" font-family="Times,serif" font-size="14" text-anchor="middle">S3 writer role</text></g><g id="edge2" class="edge"><title>s3writer-&gt;Buckets</title><path fill="none" stroke="#000" d="M188,-155.97C188,-139.38 188,-113.88 188,-94.43"/><polygon fill="#000" stroke="#000" points="191.5 -94.34 188 -84.34 184.5 -94.34 191.5 -94.34"/><text x="251" y="-126.8" font-family="Times,serif" font-size="14" text-anchor="middle">Writes to buckets</text></g><g id="node3" class="node"><title>k8s_infra_accounts_IAMUsers</title><ellipse cx="188" cy="-350" fill="none" stroke="#000" rx="147.57" ry="18"/><text x="188" y="-346.3" font-family="Times,serif" font-size="14" text-anchor="middle">k8s-infra-accounts IAM Users</text></g><g id="edge1" class="edge"><title>k8s_infra_accounts_IAMUsers-&gt;s3writer</title><path fill="none" stroke="#000" d="M188,-332C188,-301.85 188,-238.79 188,-202.43"/><polygon fill="#000" stroke="#000" points="191.5 -202.07 188 -192.07 184.5 -202.07 191.5 -202.07"/><text x="229" y="-296.8" font-family="Times,serif" font-size="14" text-anchor="middle">Switch role</text></g></g></svg>